<svg width="230" height="230" viewBox="0 0 230 230" fill="none" xmlns="http://www.w3.org/2000/svg">
<g clip-path="url(#clip0_88_164)">
<path d="M162.917 20.3542C179.31 20.3542 194.99 24.4499 206.629 35.2585C218.447 46.2318 224.021 62.1787 224.021 81.4587V148.542C224.021 167.521 218.62 183.27 207.178 194.224L206.629 194.742C194.99 205.551 179.31 209.646 162.917 209.646H67.0835C50.6902 209.646 35.0095 205.551 23.3696 194.742V194.741C11.5529 183.768 5.97901 167.822 5.979 148.542V81.4587C5.979 62.1787 11.5527 46.2317 23.3696 35.2585H23.3706C35.0104 24.4502 50.6901 20.3542 67.0835 20.3542H162.917ZM180.817 73.7243C180.417 73.2065 179.672 73.1107 179.152 73.5124L179.151 73.5114L125.992 114.589C119.517 119.592 110.48 119.591 104.005 114.588V114.589L50.8472 73.5114C50.3607 73.1355 49.6745 73.196 49.2603 73.6325L49.1812 73.7253C48.7802 74.2442 48.8762 74.9904 49.395 75.3913L102.553 116.467H102.554C109.885 122.131 120.114 122.131 127.445 116.467L180.604 75.3913L180.696 75.3122C181.132 74.898 181.193 74.2118 180.817 73.7253V73.7243Z" fill="white" stroke="#2C3170" stroke-width="12"/>
</g>
<defs>
<clipPath id="clip0_88_164">
<rect width="230" height="230" fill="white"/>
</clipPath>
</defs>
</svg>
