<svg preserveAspectRatio="none" overflow="visible" style="display: block;" width="230.042" height="201.292" viewBox="0 0 230.042 201.292" fill="none" xmlns="http://www.w3.org/2000/svg">
<g id="email">
<path id="Subtract" d="M162.938 6L164.473 6.01172C180.307 6.26224 195.375 10.4336 206.65 20.9043C218.468 31.8776 224.042 47.8245 224.042 67.1045V134.188C224.042 153.167 218.641 168.916 207.199 179.87L206.65 180.388C195.011 191.197 179.331 195.292 162.938 195.292H67.1045C50.7112 195.292 35.0305 191.196 23.3906 180.388V180.387C11.5739 169.414 6 153.468 6 134.188V67.1045C6 47.8245 11.5737 31.8776 23.3906 20.9043H23.3916C35.0314 10.096 50.7111 6 67.1045 6H162.938ZM180.838 59.3701C180.438 58.8524 179.693 58.7566 179.173 59.1582L179.172 59.1572L126.013 100.234C119.538 105.238 110.501 105.237 104.026 100.233V100.234L50.8682 59.1572C50.3816 58.7813 49.6955 58.8419 49.2812 59.2783L49.2021 59.3711C48.8012 59.89 48.8971 60.6362 49.416 61.0371L102.574 102.113H102.575C109.906 107.777 120.135 107.777 127.466 102.113L180.625 61.0371L180.717 60.958C181.153 60.5438 181.214 59.8576 180.838 59.3711V59.3701Z" fill="white" stroke="#2C3170" stroke-width="12"/>
</g>
</svg>
